<?xml version="1.0" standalone="no"?>
<!DOCTYPE svg PUBLIC "-//W3C//DTD SVG 20010904//EN"
 "http://www.w3.org/TR/2001/REC-SVG-20010904/DTD/svg10.dtd">
<svg version="1.0" xmlns="http://www.w3.org/2000/svg"
 width="239.000000pt" height="239.000000pt" viewBox="0 0 239.000000 239.000000"
 preserveAspectRatio="xMidYMid meet">
<metadata>
Created by potrace 1.11, written by Peter Selinger 2001-2013
</metadata>
<g transform="translate(0.000000,239.000000) scale(0.100000,-0.100000)"
fill="#000000" stroke="none">
<path d="M0 1195 l0 -1195 1195 0 1195 0 0 1195 0 1195 -1195 0 -1195 0 0
-1195z m360 -447 c0 -142 -1 -153 -22 -175 -16 -17 -33 -23 -63 -23 -50 0 -54
3 -47 35 3 20 10 25 32 25 16 0 30 7 34 16 3 9 6 74 6 145 l0 129 30 0 30 0 0
-152z m276 139 c4 -4 2 -18 -4 -31 -10 -23 -13 -24 -52 -14 -53 14 -93 -2 -88
-33 2 -15 23 -32 66 -55 75 -38 91 -57 92 -102 0 -74 -47 -106 -151 -100 -37
2 -71 6 -74 10 -3 3 -3 17 1 32 5 22 10 25 33 19 50 -13 102 -9 116 11 20 27
8 44 -49 73 -91 45 -115 80 -95 140 15 48 50 64 131 60 37 -1 70 -6 74 -10z
m398 -16 c20 -19 26 -34 26 -69 0 -38 -5 -50 -35 -77 -23 -22 -30 -35 -21 -38
11 -4 86 -120 86 -133 0 -2 -16 -4 -35 -4 -32 0 -37 5 -76 70 -28 47 -47 70
-60 70 -17 0 -19 -8 -19 -70 l0 -70 -35 0 -35 0 0 168 c0 93 3 172 8 176 4 4
44 6 89 4 70 -3 85 -6 107 -27z m276 -91 c17 -17 20 -33 20 -109 0 -49 3 -96
6 -105 9 -23 -35 -21 -51 1 -13 17 -14 17 -32 0 -27 -24 -85 -22 -108 3 -25
28 -24 79 3 101 12 9 45 20 73 24 44 6 50 10 47 29 -3 19 -9 21 -60 21 -32 0
-58 3 -58 6 0 4 -3 14 -6 22 -6 18 15 24 94 26 40 1 57 -4 72 -19z m130 5 c0
-19 9 -19 34 0 21 16 83 20 103 7 22 -14 33 -63 33 -153 l0 -89 -29 0 -29 0
-4 90 c-2 67 -7 93 -18 100 -23 15 -38 12 -60 -10 -17 -17 -20 -33 -20 -100
l0 -80 -30 0 -30 0 0 125 0 125 25 0 c16 0 25 -6 25 -15z m424 9 c23 -9 24
-269 1 -301 -21 -30 -77 -46 -131 -38 -38 5 -44 9 -44 31 0 24 2 24 48 18 54
-7 82 10 82 49 0 16 -3 18 -12 9 -20 -20 -95 -15 -117 7 -45 45 -40 160 9 204
26 23 39 27 89 27 33 0 66 -3 75 -6z m240 -5 c29 -14 49 -56 44 -95 -3 -29 -3
-29 -80 -32 -43 -2 -78 -6 -78 -10 0 -4 7 -18 16 -31 15 -20 23 -23 66 -19 40
4 51 2 59 -14 8 -15 5 -20 -16 -28 -38 -15 -102 -12 -135 5 -35 18 -54 71 -47
133 9 83 92 127 171 91z"/>
<path d="M907 844 c-4 -4 -7 -29 -7 -56 0 -48 0 -48 34 -48 18 0 39 7 46 15
15 18 17 62 3 76 -12 12 -67 22 -76 13z"/>
<path d="M1202 651 c-21 -13 -10 -46 16 -49 28 -4 52 14 52 39 0 14 -7 19 -27
19 -16 0 -34 -4 -41 -9z"/>
<path d="M1741 736 c-37 -45 -16 -136 32 -136 37 0 47 19 47 87 l0 63 -34 0
c-18 0 -39 -6 -45 -14z"/>
<path d="M2002 725 c-12 -25 -12 -25 39 -25 47 0 50 2 47 23 -2 17 -10 23 -39
25 -30 3 -37 -1 -47 -23z"/>
</g>
</svg>
